<?xml version="1.0" encoding="UTF-8"?><svg xmlns="http://www.w3.org/2000/svg" width="901" height="674" style="font-family: Arial, sans-serif"><g class="path" style="cursor: move;"><path stroke="black" stroke-width="1.5" fill="none" d="M230.01,420.85L67.40,345.75"></path><path stroke="black" stroke-width="1.5" fill="white" class="arrowfront" d="M-1,0L15,5L15,-5Z" transform="translate(67.40311425194116,345.75136036484736) rotate(24.789502252910616)"></path></g><g class="path" style="cursor: move;"><path stroke="black" stroke-width="1.5" fill="none" d="M267.46,425.20L831.33,340.23"></path><path stroke="black" stroke-width="1.5" fill="white" class="arrowfront" d="M-1,0L15,5L15,-5Z" transform="translate(831.3330933012604,340.2340094859732) rotate(171.43115181402047)"></path></g><g class="path" style="cursor: move;"><path stroke="#d01c8b" stroke-width="1.5" fill="none" d="M468.24,162.37L833.60,328.25"></path><path stroke="#d01c8b" stroke-width="1.5" fill="white" class="arrowfront" d="M-1,0L15,5L15,-5Z" transform="translate(833.5968880187313,328.24863536740673) rotate(204.41941011136421)"></path></g><g class="path" style="cursor: move;"><path stroke="#d01c8b" stroke-width="1.5" fill="none" d="M604.16,251.69L832.57,330.12"></path><path stroke="#d01c8b" stroke-width="1.5" fill="white" class="arrowfront" d="M-1,0L15,5L15,-5Z" transform="translate(832.5702505066554,330.1189580262081) rotate(198.95083375941414)"></path></g><g class="path" style="cursor: move;"><path stroke="#d01c8b" stroke-width="1.5" fill="none" d="M62.75,330.07L428.10,164.19"></path><path stroke="#d01c8b" stroke-width="1.5" fill="white" class="arrowfront" d="M-1,0L15,5L15,-5Z" transform="translate(428.10191649243313,164.18616435950727) rotate(155.58057379663458)"></path></g><g class="path" style="cursor: move;"><path stroke="#d01c8b" stroke-width="1.5" fill="none" d="M64.63,334.10L560.96,249.84"></path><path stroke="#d01c8b" stroke-width="1.5" fill="white" class="arrowfront" d="M-1,0L15,5L15,-5Z" transform="translate(560.9557580889805,249.84257315656038) rotate(170.36462358547644)"></path></g><g class="path" style="cursor: move;"><path stroke="#d01c8b" stroke-width="1.5" fill="none" d="M63.63,331.52L291.84,253.10"></path><path stroke="#d01c8b" stroke-width="1.5" fill="white" class="arrowfront" d="M-1,0L15,5L15,-5Z" transform="translate(291.84471744971273,253.10295909479993) rotate(161.03561208052884)"></path></g><g class="path" style="cursor: move;"><path stroke="#d01c8b" stroke-width="1.5" fill="none" d="M65.00,337.00L831.00,337.00"></path><path stroke="#d01c8b" stroke-width="1.5" fill="white" class="arrowfront" d="M-1,0L15,5L15,-5Z" transform="translate(830.9950049950061,336.9999836647442) rotate(179.99999877812868)"></path></g><g class="path" style="cursor: move;"><path stroke="#d01c8b" stroke-width="1.5" fill="none" d="M60.80,327.80L430.39,76.37"></path><path stroke="#d01c8b" stroke-width="1.5" fill="white" class="arrowfront" d="M-1,0L15,5L15,-5Z" transform="translate(430.3875161198961,76.37476592255379) rotate(145.7737501403784)"></path></g><g class="path" style="cursor: move;"><path stroke="#d01c8b" stroke-width="1.5" fill="none" d="M335.27,246.22L560.53,246.22"></path><path stroke="#d01c8b" stroke-width="1.5" fill="white" class="arrowfront" d="M-1,0L15,5L15,-5Z" transform="translate(560.5298366633376,246.21740972389685) rotate(179.99999584510718)"></path></g><g class="path" style="cursor: move;"><path stroke="#d01c8b" stroke-width="1.5" fill="none" d="M334.90,249.11L831.42,333.38"></path><path stroke="#d01c8b" stroke-width="1.5" fill="white" class="arrowfront" d="M-1,0L15,5L15,-5Z" transform="translate(831.4206284378824,333.37613683747) rotate(189.63178032841805)"></path></g><g class="path" style="cursor: move;"><path stroke="black" stroke-width="1.5" fill="none" d="M432.76,511.63L67.40,345.75"></path><path stroke="black" stroke-width="1.5" fill="white" class="arrowfront" d="M-1,0L15,5L15,-5Z" transform="translate(67.40311425194116,345.75136036484736) rotate(24.419410253715295)"></path></g><g class="path" style="cursor: move;"><path stroke="black" stroke-width="1.5" fill="none" d="M468.24,511.63L833.60,345.75"></path><path stroke="black" stroke-width="1.5" fill="white" class="arrowfront" d="M-1,0L15,5L15,-5Z" transform="translate(833.5969214874382,345.7513122412019) rotate(155.5805737966346)"></path></g><g class="path" style="cursor: move;"><path stroke="black" stroke-width="1.5" fill="none" d="M431.15,423.98L69.26,341.77"></path><path stroke="black" stroke-width="1.5" fill="white" class="arrowfront" d="M-1,0L15,5L15,-5Z" transform="translate(69.26324002690583,341.7653186650382) rotate(12.799626789189995)"></path></g><g class="path" style="cursor: move;"><path stroke="black" stroke-width="1.5" fill="none" d="M469.85,423.98L831.74,341.77"></path><path stroke="black" stroke-width="1.5" fill="white" class="arrowfront" d="M-1,0L15,5L15,-5Z" transform="translate(831.7366870283281,341.76532082523056) rotate(167.20035979720555)"></path></g><g class="path" style="cursor: move;"><path stroke="#d01c8b" stroke-width="1.5" fill="none" d="M633.54,425.20L69.67,340.23"></path><path stroke="#d01c8b" stroke-width="1.5" fill="white" class="arrowfront" d="M-1,0L15,5L15,-5Z" transform="translate(69.66685474929018,340.23402007803526) rotate(8.568840273289641)"></path></g><g class="path" style="cursor: move;"><path stroke="#d01c8b" stroke-width="1.5" fill="none" d="M670.99,420.85L833.60,345.75"></path><path stroke="#d01c8b" stroke-width="1.5" fill="white" class="arrowfront" d="M-1,0L15,5L15,-5Z" transform="translate(833.5969214874382,345.7513122412019) rotate(155.21046221184037)"></path></g><g class="path" style="cursor: move;"><path stroke="#d01c8b" stroke-width="1.5" fill="none" d="M634.36,513.63L68.73,343.20"></path><path stroke="#d01c8b" stroke-width="1.5" fill="white" class="arrowfront" d="M-1,0L15,5L15,-5Z" transform="translate(68.73255008567256,343.20434508185525) rotate(16.767423563977758)"></path></g><g class="path" style="cursor: move;"><path stroke="#d01c8b" stroke-width="1.5" fill="none" d="M667.17,507.79L838.12,350.83"></path><path stroke="#d01c8b" stroke-width="1.5" fill="white" class="arrowfront" d="M-1,0L15,5L15,-5Z" transform="translate(838.1209705056107,350.83064913986635) rotate(137.44294998697464)"></path></g><g class="path" style="cursor: move;"><path stroke="black" stroke-width="1.5" fill="none" d="M434.71,600.14L65.12,348.72"></path><path stroke="black" stroke-width="1.5" fill="white" class="arrowfront" d="M-1,0L15,5L15,-5Z" transform="translate(65.11749667127678,348.7225118882622) rotate(34.22624087292056)"></path></g><g class="path" style="cursor: move;"><path stroke="black" stroke-width="1.5" fill="none" d="M466.29,600.14L835.88,348.72"></path><path stroke="black" stroke-width="1.5" fill="white" class="arrowfront" d="M-1,0L15,5L15,-5Z" transform="translate(835.8825211149011,348.7224877450958) rotate(145.7737501403784)"></path></g><g class="path" style="cursor: move;"><path stroke="black" stroke-width="1.5" fill="none" d="M233.83,507.79L62.88,350.83"></path><path stroke="black" stroke-width="1.5" fill="white" class="arrowfront" d="M-1,0L15,5L15,-5Z" transform="translate(62.879028707622965,350.8306558786893) rotate(42.55704084583534)"></path></g><g class="path" style="cursor: move;"><path stroke="black" stroke-width="1.5" fill="none" d="M266.64,513.63L832.27,343.20"></path><path stroke="black" stroke-width="1.5" fill="white" class="arrowfront" d="M-1,0L15,5L15,-5Z" transform="translate(832.2674218473811,343.2043250832347) rotate(163.2325637164288)"></path></g><g class="path" style="cursor: move;"><path stroke="#d01c8b" stroke-width="1.5" fill="none" d="M466.29,73.86L835.88,325.28"></path><path stroke="#d01c8b" stroke-width="1.5" fill="white" class="arrowfront" d="M-1,0L15,5L15,-5Z" transform="translate(835.8824942622498,325.2774982067534) rotate(214.2262412378364)"></path></g><g style="cursor: move; touch-action: none;" transform="translate(247.7524975024975,427.7825739408473)"><path fill-opacity="0.7" stroke-width="2" z-index="1" d="M 0 0 m 20, 0 a 20,15 0 1,1 -40,0 a 20,15 0 1,1 40,0" fill="#ffffff" stroke="#000000"></path><rect class="textbg" fill="#ffffff" width="28.483333587646484" height="18.33333396911621" x="-14.25" y="20.333332061767578"></rect><text class="nodelabel" y="35" text-anchor="middle">Age</text></g><g style="cursor: move; touch-action: none;" transform="translate(450.5,155.4348521183054)"><path fill-opacity="0.7" stroke-width="2" z-index="1" d="M 0 0 m 20, 0 a 20,15 0 1,1 -40,0 a 20,15 0 1,1 40,0" fill="#bed403" stroke="#bed403"></path><rect class="textbg" fill="#ffffff" width="52.483333587646484" height="18.33333396911621" x="-26.25" y="20.333332061767578"></rect><text class="nodelabel" y="35" text-anchor="middle">Alcohol</text></g><g style="cursor: move; touch-action: none;" transform="translate(585.5298366633366,246.2174260591527)"><path fill-opacity="0.7" stroke-width="2" z-index="1" d="M 0 0 m 20, 0 a 20,15 0 1,1 -40,0 a 20,15 0 1,1 40,0" fill="#bed403" stroke="#bed403"></path><rect class="textbg" fill="#ffffff" width="28.450000762939453" height="18.33333396911621" x="-14.225000381469727" y="20.333332061767578"></rect><text class="nodelabel" y="35" text-anchor="middle">BMI</text></g><g style="cursor: move; touch-action: none;" transform="translate(45.00499500499501,337.00000000000006)"><path fill-opacity="0.7" stroke-width="2" z-index="1" d="M 0 0 m 20, 0 a 20,15 0 1,1 -40,0 a 20,15 0 1,1 40,0" fill="#00a2e0" stroke="#000000"></path><rect class="textbg" fill="#ffffff" width="67.5999984741211" height="18.33333396911621" x="-33.79999923706055" y="20.333332061767578"></rect><text class="nodelabel" y="35" text-anchor="middle">Cannabis</text><path d="M-2,-6L2,-6L2,6L-2,6Z" fill="#000000"></path></g><g style="cursor: move; touch-action: none;" transform="translate(315.26741583416583,246.2174260591527)"><path fill-opacity="0.7" stroke-width="2" z-index="1" d="M 0 0 m 20, 0 a 20,15 0 1,1 -40,0 a 20,15 0 1,1 40,0" fill="#bed403" stroke="#bed403"></path><rect class="textbg" fill="#ffffff" width="28.450000762939453" height="18.33333396911621" x="-14.225000381469727" y="20.333332061767578"></rect><text class="nodelabel" y="35" text-anchor="middle">Diet</text></g><g style="cursor: move; touch-action: none;" transform="translate(450.5,518.5651478816947)"><path fill-opacity="0.7" stroke-width="2" z-index="1" d="M 0 0 m 20, 0 a 20,15 0 1,1 -40,0 a 20,15 0 1,1 40,0" fill="#ffffff" stroke="#000000"></path><rect class="textbg" fill="#ffffff" width="71.16666412353516" height="18.33333396911621" x="-35.583335876464844" y="20.333332061767578"></rect><text class="nodelabel" y="35" text-anchor="middle">Education</text></g><g style="cursor: move; touch-action: none;" transform="translate(450.5,427.7825739408473)"><path fill-opacity="0.7" stroke-width="2" z-index="1" d="M 0 0 m 20, 0 a 20,15 0 1,1 -40,0 a 20,15 0 1,1 40,0" fill="#ffffff" stroke="#000000"></path><rect class="textbg" fill="#ffffff" width="53.599998474121094" height="18.33333396911621" x="-26.691667556762695" y="20.333332061767578"></rect><text class="nodelabel" y="35" text-anchor="middle">Gender</text></g><g style="cursor: move; touch-action: none;" transform="translate(653.2475024975024,427.7825739408473)"><path fill-opacity="0.7" stroke-width="2" z-index="1" d="M 0 0 m 20, 0 a 20,15 0 1,1 -40,0 a 20,15 0 1,1 40,0" fill="#dddddd" stroke="#aaaaaa"></path><rect class="textbg" fill="#ffffff" width="154.78334045410156" height="18.33333396911621" x="-77.39167022705078" y="20.333332061767578"></rect><text class="nodelabel" y="35" text-anchor="middle">Geographical_Region</text></g><g style="cursor: move; touch-action: none;" transform="translate(855.995004995005,337.00000000000006)"><path fill-opacity="0.7" stroke-width="2" z-index="1" d="M 0 0 m 20, 0 a 20,15 0 1,1 -40,0 a 20,15 0 1,1 40,0" fill="#bed403" stroke="#000000"></path><rect class="textbg" fill="#ffffff" width="94.28333282470703" height="18.33333396911621" x="-47.141666412353516" y="20.333332061767578"></rect><text class="nodelabel" y="35" text-anchor="middle">Hypertension</text><path d="M-4,-6L7,0L-4,6Z" fill="#000000"></path></g><g style="cursor: move; touch-action: none;" transform="translate(653.2475024975024,518.5651478816947)"><path fill-opacity="0.7" stroke-width="2" z-index="1" d="M 0 0 m 20, 0 a 20,15 0 1,1 -40,0 a 20,15 0 1,1 40,0" fill="#dddddd" stroke="#aaaaaa"></path><rect class="textbg" fill="#ffffff" width="52.483333587646484" height="18.33333396911621" x="-26.241666793823242" y="20.333332061767578"></rect><text class="nodelabel" y="35" text-anchor="middle">Income</text></g><g style="cursor: move; touch-action: none;" transform="translate(450.5,609.347721822542)"><path fill-opacity="0.7" stroke-width="2" z-index="1" d="M 0 0 m 20, 0 a 20,15 0 1,1 -40,0 a 20,15 0 1,1 40,0" fill="#ffffff" stroke="#000000"></path><rect class="textbg" fill="#ffffff" width="37.349998474121094" height="18.33333396911621" x="-18.67500114440918" y="20.333332061767578"></rect><text class="nodelabel" y="35" text-anchor="middle">Race</text></g><g style="cursor: move; touch-action: none;" transform="translate(247.7524975024975,518.5651478816947)"><path fill-opacity="0.7" stroke-width="2" z-index="1" d="M 0 0 m 20, 0 a 20,15 0 1,1 -40,0 a 20,15 0 1,1 40,0" fill="#ffffff" stroke="#000000"></path><rect class="textbg" fill="#ffffff" width="91.25" height="18.33333396911621" x="-45.516666412353516" y="20.333332061767578"></rect><text class="nodelabel" y="35" text-anchor="middle">Survey_Year</text></g><g style="cursor: move; touch-action: none;" transform="translate(450.5,64.65227817745806)"><path fill-opacity="0.7" stroke-width="2" z-index="1" d="M 0 0 m 20, 0 a 20,15 0 1,1 -40,0 a 20,15 0 1,1 40,0" fill="#bed403" stroke="#bed403"></path><rect class="textbg" fill="#ffffff" width="59.599998474121094" height="18.33333396911621" x="-29.80000114440918" y="20.333332061767578"></rect><text class="nodelabel" y="35" text-anchor="middle">Tobacco</text></g></svg>